<mxfile host="app.diagrams.net" modified="2024-04-18T22:33:11.835Z" agent="Mozilla/5.0 (Windows NT 10.0; Win64; x64) AppleWebKit/537.36 (KHTML, like Gecko) Chrome/123.0.0.0 Safari/537.36" version="24.2.5" etag="ERZY02NRkweDC1NcbFcc" type="github">
  <diagram name="PÃ¡gina-1" id="x9klb2GsmNd2539iYY9S">
    <mxGraphModel>
      <root>
        <mxCell id="0" />
        <mxCell id="1" parent="0" />
      </root>
    </mxGraphModel>
  </diagram>
</mxfile>
